<svg xmlns="http://www.w3.org/2000/svg" width="256" height="256" viewBox="0 0 256 256" fill="none">
  <defs>
    <linearGradient id="bg" x1="28" y1="20" x2="228" y2="236" gradientUnits="userSpaceOnUse">
      <stop stop-color="#FFF0E9"/>
      <stop offset="1" stop-color="#F4B39D"/>
    </linearGradient>
  </defs>
  <rect x="18" y="18" width="220" height="220" rx="56" fill="url(#bg)"/>
  <rect x="34" y="34" width="188" height="188" rx="44" fill="white" fill-opacity="0.16"/>
  <rect x="46" y="46" width="164" height="164" rx="38" fill="white" fill-opacity="0.12"/>
  <g transform="translate(32 32) scale(9.6)" stroke="#6B3320" stroke-width="1.6" stroke-linecap="round" stroke-linejoin="round">
    <rect x="3.5" y="4" width="5" height="5" rx="1" fill="none"/>
    <rect x="10.5" y="4" width="5.5" height="5" rx="1" fill="none"/>
    <rect x="3.5" y="11" width="5" height="5" rx="1" fill="none"/>
    <path d="M12 10.4c1.7 0 3 .8 4 2.2-.3 1.9-1.7 3.6-4 4.7-2.3-1.1-3.7-2.8-4-4.7 1-1.4 2.3-2.2 4-2.2Z" fill="none"/>
  </g>
</svg>
