<svg xmlns="http://www.w3.org/2000/svg" width="512" height="512" viewBox="0 0 512 512" role="img" aria-label="Branch Brief Bar">
  <defs>
    <linearGradient id="bg" x1="72" y1="42" x2="438" y2="468" gradientUnits="userSpaceOnUse">
      <stop offset="0" stop-color="#18202A"/>
      <stop offset="1" stop-color="#05070B"/>
    </linearGradient>
    <linearGradient id="accent" x1="142" y1="132" x2="390" y2="392" gradientUnits="userSpaceOnUse">
      <stop offset="0" stop-color="#34D399"/>
      <stop offset="1" stop-color="#30D158"/>
    </linearGradient>
    <filter id="shadow" x="-20%" y="-20%" width="140%" height="140%">
      <feDropShadow dx="0" dy="18" stdDeviation="22" flood-color="#000000" flood-opacity="0.45"/>
    </filter>
  </defs>
  <rect width="512" height="512" rx="120" fill="url(#bg)"/>
  <circle cx="379" cy="124" r="96" fill="#30D158" opacity="0.16"/>
  <circle cx="135" cy="386" r="112" fill="#30D158" opacity="0.1"/>
  <rect x="95" y="92" width="322" height="328" rx="74" fill="#121820" stroke="#FFFFFF" stroke-opacity="0.09" filter="url(#shadow)"/>
  <rect x="128" y="126" width="256" height="54" rx="20" fill="url(#accent)" opacity="0.96"/>
  <rect x="135" y="213" width="242" height="150" rx="34" fill="#0C1117" stroke="#FFFFFF" stroke-opacity="0.08"/>
  <path d="M174 310C204 310 222 294 222 264V244C222 224 236 210 256 210C276 210 290 224 290 244V274C290 301 309 318 338 318" fill="none" stroke="#30D158" stroke-width="20" stroke-linecap="round" stroke-linejoin="round"/>
  <circle cx="174" cy="310" r="28" fill="#D9FAE7" stroke="#30D158" stroke-width="12"/>
  <circle cx="256" cy="210" r="28" fill="#D9FAE7" stroke="#30D158" stroke-width="12"/>
  <circle cx="338" cy="318" r="28" fill="#D9FAE7" stroke="#30D158" stroke-width="12"/>
  <path d="M168 378L196 405L248 349" fill="none" stroke="#FFFFFF" stroke-width="18" stroke-linecap="round" stroke-linejoin="round"/>
  <rect x="274" y="368" width="84" height="18" rx="9" fill="#FFFFFF" fill-opacity="0.28"/>
  <rect x="274" y="399" width="58" height="16" rx="8" fill="#FFFFFF" fill-opacity="0.16"/>
</svg>
