<svg width="256" height="256" viewBox="0 0 256 256" fill="none" xmlns="http://www.w3.org/2000/svg">
  <rect width="256" height="256" rx="72" fill="#0B1018"/>
  <g filter="url(#shadow)">
    <rect x="40" y="44" width="176" height="166" rx="42" fill="url(#card)"/>
    <rect x="40.75" y="44.75" width="174.5" height="164.5" rx="41.25" stroke="#FFFFFF" stroke-opacity="0.12" stroke-width="1.5"/>
  </g>
  <path d="M40 86C40 62.804 58.804 44 82 44H174C197.196 44 216 62.804 216 86V96H40V86Z" fill="#D88B2C"/>
  <circle cx="82" cy="70" r="9" fill="#FFF1D6"/>
  <circle cx="174" cy="70" r="9" fill="#FFF1D6"/>
  <path d="M83 130H118" stroke="#B5CAE1" stroke-width="11" stroke-linecap="round"/>
  <path d="M83 160H153" stroke="#B5CAE1" stroke-width="11" stroke-linecap="round"/>
  <path d="M176 116L183.2 133.1L201 140.3L183.2 147.5L176 164.6L168.8 147.5L151 140.3L168.8 133.1L176 116Z" fill="#8ED7FF"/>
  <circle cx="176" cy="116" r="30" fill="url(#halo)" opacity="0.3"/>
  <rect x="72" y="184" width="112" height="20" rx="10" fill="#0B1018" stroke="#24344A" stroke-width="2"/>
  <circle cx="101" cy="194" r="3.6" fill="#69D2FF"/>
  <circle cx="128" cy="194" r="3.6" fill="#D88B2C"/>
  <circle cx="155" cy="194" r="3.6" fill="#FFFFFF" fill-opacity="0.8"/>
  <defs>
    <filter id="shadow" x="18" y="24" width="220" height="208" filterUnits="userSpaceOnUse" color-interpolation-filters="sRGB">
      <feFlood flood-opacity="0" result="BackgroundImageFix"/>
      <feColorMatrix in="SourceAlpha" type="matrix" values="0 0 0 0 0 0 0 0 0 0 0 0 0 0 0 0 0 0 127 0" result="hardAlpha"/>
      <feOffset dy="10"/>
      <feGaussianBlur stdDeviation="11"/>
      <feComposite in2="hardAlpha" operator="out"/>
      <feColorMatrix type="matrix" values="0 0 0 0 0 0 0 0 0 0 0 0 0 0 0 0 0 0 0.35 0"/>
      <feBlend mode="normal" in2="BackgroundImageFix" result="effect1_dropShadow_4_12"/>
      <feBlend mode="normal" in="SourceGraphic" in2="effect1_dropShadow_4_12" result="shape"/>
    </filter>
    <linearGradient id="card" x1="128" y1="44" x2="128" y2="210" gradientUnits="userSpaceOnUse">
      <stop stop-color="#1A2435"/>
      <stop offset="1" stop-color="#101826"/>
    </linearGradient>
    <radialGradient id="halo" cx="0" cy="0" r="1" gradientUnits="userSpaceOnUse" gradientTransform="translate(176 116) rotate(90) scale(30)">
      <stop stop-color="#8ED7FF"/>
      <stop offset="1" stop-color="#8ED7FF" stop-opacity="0"/>
    </radialGradient>
  </defs>
</svg>
