<svg xmlns="http://www.w3.org/2000/svg" width="256" height="256" viewBox="0 0 256 256" fill="none">
  <defs>
    <linearGradient id="bg" x1="28" y1="20" x2="228" y2="236" gradientUnits="userSpaceOnUse">
      <stop stop-color="#FFE7E8"/>
      <stop offset="1" stop-color="#F6A2A8"/>
    </linearGradient>
  </defs>
  <rect x="18" y="18" width="220" height="220" rx="56" fill="url(#bg)"/>
  <rect x="34" y="34" width="188" height="188" rx="44" fill="white" fill-opacity="0.16"/>
  <rect x="46" y="46" width="164" height="164" rx="38" fill="white" fill-opacity="0.12"/>
  <g transform="translate(32 32) scale(9.6)" stroke="#5F1F24" stroke-width="1.6" stroke-linecap="round" stroke-linejoin="round">
    <path d="M3.5 5.5A2.5 2.5 0 0 1 6 3h8a2.5 2.5 0 0 1 2.5 2.5v5A2.5 2.5 0 0 1 14 13H8.5L5 16v-3H6A2.5 2.5 0 0 1 3.5 10.5z" fill="none"/>
    <path d="M6.2 9.2h1.8l1.2-2 1.9 4 1.1-2H15" fill="none"/>
  </g>
</svg>
