<svg xmlns="http://www.w3.org/2000/svg" width="256" height="256" viewBox="0 0 256 256" role="img" aria-label="Finder Selection Relay">
  <defs>
    <linearGradient id="bg" x1="0%" y1="0%" x2="100%" y2="100%">
      <stop offset="0%" stop-color="#09111B"/>
      <stop offset="100%" stop-color="#05080D"/>
    </linearGradient>
    <linearGradient id="accent" x1="0%" y1="0%" x2="100%" y2="100%">
      <stop offset="0%" stop-color="#0A84FF"/>
      <stop offset="100%" stop-color="#5AC8FA"/>
    </linearGradient>
  </defs>
  <rect width="256" height="256" rx="56" fill="url(#bg)"/>
  <circle cx="194" cy="58" r="38" fill="#0A84FF" opacity="0.18"/>
  <rect x="38" y="62" width="180" height="136" rx="34" fill="#101720" stroke="#FFFFFF" stroke-opacity="0.08"/>
  <path d="M58 88c0-9.9 8.1-18 18-18h34l12 12h58c9.9 0 18 8.1 18 18v10H58V88z" fill="#FFFFFF" fill-opacity="0.10"/>
  <rect x="58" y="96" width="140" height="78" rx="18" fill="url(#accent)"/>
  <rect x="76" y="112" width="42" height="42" rx="10" fill="#FFFFFF" fill-opacity="0.16"/>
  <path d="M86 126h22m-22 12h30m-30 12h34" stroke="#FFFFFF" stroke-width="5" stroke-linecap="round"/>
  <text x="58" y="220" font-family="-apple-system, BlinkMacSystemFont, 'SF Pro Text', sans-serif" font-size="11" fill="#9CB3C9">Finder relay</text>
</svg>
